HIERARCHY
ROOT Hips
{
 OFFSET 0.000000 0.000000 0.000000
 CHANNELS 6 Xposition Yposition Zposition Yrotation Xrotation Zrotation
 JOINT Chest
 {
  OFFSET 0.000000 9.581000 -0.001100
  CHANNELS 3 Yrotation Xrotation Zrotation
  JOINT Chest2
  {
   OFFSET 0.000000 9.561100 0.002200
   CHANNELS 3 Yrotation Xrotation Zrotation
   JOINT Chest3
   {
    OFFSET 0.000000 9.521100 0.000000
    CHANNELS 3 Yrotation Xrotation Zrotation
    JOINT Chest4
    {
     OFFSET 0.000000 9.511400 0.000000
     CHANNELS 3 Yrotation Xrotation Zrotation
     JOINT Neck
     {
      OFFSET 0.000000 14.375100 0.000000
      CHANNELS 3 Yrotation Xrotation Zrotation
      JOINT Head
      {
       OFFSET 0.000000 8.901200 0.004600
       CHANNELS 3 Yrotation Xrotation Zrotation
       End Site
       {
        OFFSET 0.000000 16.962200 0.002400
       }
      }
     }
     JOINT RightCollar
     {
      OFFSET -2.920100 9.518800 0.000000
      CHANNELS 3 Yrotation Xrotation Zrotation
      JOINT RightShoulder
      {
       OFFSET -13.664500 0.000000 0.000000
       CHANNELS 3 Yrotation Xrotation Zrotation
       JOINT RightElbow
       {
        OFFSET 0.000000 -29.999200 0.000000
        CHANNELS 3 Yrotation Xrotation Zrotation
        JOINT RightWrist
        {
         OFFSET 0.000000 -24.253600 0.000000
         CHANNELS 3 Yrotation Xrotation Zrotation
         End Site
         {
          OFFSET 0.000000 -17.918900 0.000000
         }
        }
       }
      }
     }
     JOINT LeftCollar
     {
      OFFSET 2.920100 9.518800 0.000000
      CHANNELS 3 Yrotation Xrotation Zrotation
      JOINT LeftShoulder
      {
       OFFSET 13.664500 0.000000 0.000000
       CHANNELS 3 Yrotation Xrotation Zrotation
       JOINT LeftElbow
       {
        OFFSET 0.000000 -29.999200 0.000000
        CHANNELS 3 Yrotation Xrotation Zrotation
        JOINT LeftWrist
        {
         OFFSET 0.000000 -24.253600 0.000000
         CHANNELS 3 Yrotation Xrotation Zrotation
         End Site
         {
          OFFSET 0.000000 -17.918900 0.000000
         }
        }
       }
      }
     }
    }
   }
  }
 }
 JOINT RightHip
 {
  OFFSET -7.797300 0.005300 0.000500
  CHANNELS 3 Yrotation Xrotation Zrotation
  JOINT RightKnee
  {
   OFFSET 0.000000 -40.663400 -0.000500
   CHANNELS 3 Yrotation Xrotation Zrotation
   JOINT RightAnkle
   {
    OFFSET 0.000000 -39.523700 -0.000900
    CHANNELS 3 Yrotation Xrotation Zrotation
    JOINT RightToe
    {
     OFFSET 0.000000 -6.418000 14.485300
     CHANNELS 3 Yrotation Xrotation Zrotation
     End Site
     {
      OFFSET 0.000000 -1.465200 6.326400
     }
    }
   }
  }
 }
 JOINT LeftHip
 {
  OFFSET 7.797300 0.005300 0.000500
  CHANNELS 3 Yrotation Xrotation Zrotation
  JOINT LeftKnee
  {
   OFFSET 0.000000 -40.663400 -0.000500
   CHANNELS 3 Yrotation Xrotation Zrotation
   JOINT LeftAnkle
   {
    OFFSET 0.000000 -39.523700 -0.000900
    CHANNELS 3 Yrotation Xrotation Zrotation
    JOINT LeftToe
    {
     OFFSET 0.000000 -6.418000 14.485300
     CHANNELS 3 Yrotation Xrotation Zrotation
     End Site
     {
      OFFSET 0.000000 -1.465200 6.326400
     }
    }
   }
  }
 }
}
MOTION
Frames: 8
Frame Time: 0.008333
0.000000 86.422400 0.000000 0.000000 -5.767877 0.000000 0.000000 11.653817 0.000000 0.000000 -5.885947 0.000000 0.000000 -0.000000 0.000000 0.000000 -0.000000 0.000000 0.000000 12.528835 0.000000 0.000000 0.711642 0.000000 0.000000 -0.000000 0.000000 0.000000 0.000000 -90.000000 0.000000 -2.309062 0.000000 0.000000 2.309062 0.000000 0.000000 -0.000000 0.000000 0.000000 -0.000000 90.000000 0.000000 -2.309062 0.000000 0.000000 2.309062 0.000000 0.000000 8.520406 0.000000 0.000000 1.905762 0.000000 -0.000000 -4.658285 0.000000 0.000000 -0.000000 0.000000 0.000000 8.520406 0.000000 0.000000 1.905762 0.000000 -0.000000 -4.658285 0.000000 0.000000 -0.000000 0.000000
-13.230475 126.914373 32.622742 -162.159696 -49.702614 -0.738597 -3.887571 26.481744 1.694516 -0.702659 4.515462 0.410203 -1.101354 7.165348 0.620182 -3.189215 21.642892 1.516627 9.868883 14.764504 -5.295740 12.429165 -9.631163 -8.359668 0.209344 2.622582 1.115767 7.166993 -4.543652 -10.675880 -79.112709 -59.995120 131.638577 3.811573 15.185538 -17.829639 -9.452506 -0.912560 0.384802 -5.892583 0.271458 8.949800 59.279594 -58.388687 -103.258703 0.953424 -9.817910 17.375435 -5.954120 -23.877852 -11.855042 -10.946281 79.071988 -12.707293 10.490041 -15.581686 3.643270 -0.000311 -0.000338 -0.000138 4.331649 5.862591 -2.987858 129.179374 65.292181 146.847569 10.653050 9.788361 3.672444 0.003812 -0.008094 0.001689
-13.230362 126.915235 32.622767 -162.163296 -49.714545 -0.739027 -3.886709 26.484157 1.711211 -0.704066 4.514889 0.412622 -1.102471 7.173217 0.606403 -3.189379 21.639714 1.528838 9.911490 14.767126 -5.261793 12.469031 -9.615309 -8.350492 0.200453 2.620317 1.166435 7.173931 -4.534868 -10.728626 -79.158355 -59.966366 131.674667 3.809627 15.211854 -17.820437 -9.453486 -0.913582 0.373439 -5.907525 0.269264 8.977963 59.275370 -58.396991 -103.231498 0.965209 -9.814610 17.366364 -5.950526 -23.863203 -11.854122 -10.954253 79.071022 -12.711874 10.482528 -15.593504 3.635816 -0.002830 -0.003106 -0.001254 4.336929 5.871846 -2.983174 129.188812 65.288276 146.863781 10.695647 9.845701 3.519017 0.002121 0.011183 0.000940
-13.230708 126.915212 32.623860 -162.162301 -49.720397 -0.738719 -3.890286 26.479069 1.725256 -0.705576 4.513972 0.414883 -1.104183 7.173335 0.610042 -3.195994 21.643277 1.521965 9.954110 14.772331 -5.225863 12.468392 -9.597608 -8.364823 0.195015 2.624172 1.164730 7.157445 -4.552575 -10.703179 -79.149795 -59.968466 131.668453 3.802946 15.229158 -17.811485 -9.453852 -0.924090 0.386899 -5.924168 0.253169 9.014357 59.224919 -58.395448 -103.151068 0.974018 -9.822247 17.335849 -5.949061 -23.857687 -11.859902 -10.914429 79.076597 -12.669388 10.483785 -15.596874 3.628416 -0.000946 -0.003077 -0.000419 4.339002 5.878937 -2.988489 129.191689 65.285578 146.867497 10.709210 9.856597 3.488369 -0.000345 0.015734 -0.000153
-13.230959 126.914581 32.625590 -162.156937 -49.722109 -0.741395 -3.895668 26.474915 1.731303 -0.706766 4.510316 0.420564 -1.107761 7.159349 0.636094 -3.209901 21.649762 1.511460 9.995876 14.789249 -5.203746 12.529377 -9.575558 -8.336284 0.190582 2.635166 1.146605 7.137851 -4.572612 -10.673257 -79.103169 -59.991229 131.634008 3.794955 15.228685 -17.807150 -9.453925 -0.928761 0.382873 -5.927474 0.253766 8.998063 59.193206 -58.408604 -103.107881 0.996686 -9.839864 17.319778 -5.950636 -23.856016 -11.864935 -10.865665 79.077112 -12.622495 10.489080 -15.594352 3.626991 -0.000476 -0.002809 -0.000211 4.338911 5.881295 -2.991565 129.192270 65.282135 146.872986 10.689643 9.837614 3.524072 0.003669 0.009595 0.001626
-13.231246 126.914980 32.626534 -162.153558 -49.732340 -0.744027 -3.899228 26.478972 1.737808 -0.706948 4.513224 0.417272 -1.108214 7.159040 0.637089 -3.206102 21.625995 1.565003 10.028176 14.822751 -5.201666 12.592575 -9.552276 -8.302772 0.180097 2.653365 1.122437 7.122474 -4.581064 -10.666846 -79.069862 -60.007538 131.609656 3.792752 15.233998 -17.802576 -9.460266 -0.927075 0.353013 -5.928464 0.255669 8.982428 59.158410 -58.415222 -103.063241 0.993735 -9.846483 17.313297 -5.944762 -23.842262 -11.869439 -10.839391 79.075556 -12.590738 10.487079 -15.592375 3.627118 0.000628 -0.002961 0.000278 4.340813 5.893933 -2.999506 129.186192 65.274347 146.867167 10.691305 9.825670 3.536928 0.001513 0.009917 0.000671
-13.231166 126.913989 32.628699 -162.150840 -49.732041 -0.746203 -3.906667 26.456602 1.759056 -0.708235 4.524806 0.408860 -1.109692 7.156580 0.640155 -3.205537 21.616935 1.580631 10.070684 14.846227 -5.176413 12.636757 -9.529934 -8.277683 0.173206 2.666520 1.121291 7.110307 -4.585881 -10.670784 -79.135888 -59.978035 131.650788 3.800301 15.300954 -17.775881 -9.459658 -0.927719 0.346743 -5.922365 0.224959 9.017851 59.105097 -58.355469 -103.019587 0.992699 -9.845069 17.298532 -5.924184 -23.836026 -11.876566 -10.818470 79.070826 -12.557357 10.499945 -15.585862 3.629163 0.003726 -0.000487 0.001651 4.339521 5.895364 -3.002647 129.182747 65.273723 146.858520 10.669800 9.793711 3.614773 0.002440 -0.000754 0.001081
-13.230942 126.914248 32.629786 -162.148265 -49.742004 -0.751133 -3.905883 26.453551 1.772728 -0.711984 4.523565 0.410039 -1.110582 7.155089 0.643518 -3.202263 21.615034 1.591285 10.117433 14.865002 -5.139813 12.682290 -9.507114 -8.248170 0.169842 2.668219 1.164632 7.086427 -4.586521 -10.702219 -79.085474 -59.999891 131.614375 3.799713 15.308822 -17.772868 -9.456401 -0.948717 0.368366 -5.926716 0.236402 8.986940 59.073714 -58.338072 -102.993570 0.986054 -9.840689 17.298873 -5.914470 -23.821972 -11.874620 -10.826663 79.069380 -12.555121 10.473757 -15.578657 3.628576 0.000967 -0.000426 0.000428 4.337718 5.907215 -3.003394 129.176617 65.271677 146.849523 10.666488 9.785723 3.633993 0.003825 -0.002809 0.001695
